<?xml version="1.0" standalone="no"?>
<!DOCTYPE svg PUBLIC "-//W3C//DTD SVG 20010904//EN"
 "http://www.w3.org/TR/2001/REC-SVG-20010904/DTD/svg10.dtd">
<svg version="1.0" xmlns="http://www.w3.org/2000/svg"
 width="1429.000000pt" height="876.000000pt" viewBox="0 0 1429.000000 876.000000"
 preserveAspectRatio="xMidYMid meet">

<g transform="translate(0.000000,876.000000) scale(0.100000,-0.100000)"
fill="#000000" stroke="none">
<path d="M0 4380 l0 -4380 7145 0 7145 0 0 4380 0 4380 -7145 0 -7145 0 0
-4380z m4000 2476 c161 -29 279 -100 356 -212 46 -68 88 -182 104 -284 6 -39
10 -314 10 -695 0 -657 -2 -701 -45 -845 -36 -120 -138 -250 -234 -300 -31
-15 -41 -26 -37 -38 3 -9 35 -147 70 -307 36 -159 81 -361 101 -449 20 -87 34
-161 31 -163 -3 -3 -35 3 -73 13 -82 22 -313 25 -382 5 -23 -7 -46 -10 -49 -6
-6 5 -45 182 -137 615 -26 118 -49 225 -52 238 -5 22 -7 22 -169 22 l-164 0 0
-645 0 -646 -24 -47 c-36 -71 -63 -162 -71 -236 l-7 -66 -269 0 c-147 0 -279
4 -293 10 -14 5 -34 18 -46 30 -19 19 -20 31 -20 283 1 190 4 266 13 278 20
26 53 39 102 39 81 0 75 -104 75 1390 0 1131 -2 1326 -14 1355 -14 33 -17 35
-65 35 -39 0 -56 6 -80 26 l-31 26 0 259 c0 226 2 263 17 285 9 14 26 30 37
34 12 5 302 9 646 9 485 0 642 -3 700 -13z m930 -801 l0 -815 185 0 185 0 0
-175 0 -175 -345 0 -345 0 0 958 c0 743 3 962 13 982 16 33 41 38 185 39 l122
1 0 -815z m2158 786 c31 -14 69 -42 91 -67 74 -84 71 -43 71 -1012 l0 -867
-135 -3 -135 -3 0 361 0 360 -150 0 -150 0 0 -360 0 -360 -137 0 -138 0 2 867
c3 962 1 932 69 1011 40 47 94 79 157 92 23 5 123 8 222 6 164 -2 185 -4 233
-25z m936 0 c110 -44 174 -127 196 -252 7 -44 10 -293 8 -789 l-3 -725 -28
-53 c-30 -57 -90 -104 -157 -122 -19 -6 -174 -10 -347 -10 l-313 0 0 991 0
991 293 -4 c278 -4 295 -5 351 -27z m-2148 -14 c196 -68 347 -225 416 -432 19
-59 23 -90 23 -200 0 -120 -3 -137 -33 -223 -51 -147 -134 -307 -290 -557
-139 -222 -228 -370 -272 -452 l-44 -81 -53 99 c-29 54 -100 176 -159 271 -59
95 -135 218 -168 273 -138 223 -219 397 -250 533 -78 342 134 690 476 782 101
28 253 22 354 -13z m5147 -356 c26 -13 82 -53 125 -90 84 -73 85 -75 166 -301
19 -52 66 -183 104 -290 92 -253 314 -870 338 -937 l19 -53 188 0 c120 0 196
-4 210 -11 34 -17 77 -61 94 -94 40 -76 43 -115 43 -597 0 -426 1 -468 16
-468 9 0 32 -16 50 -36 l34 -35 0 -294 c0 -341 -5 -382 -57 -424 -19 -16 -49
-32 -66 -35 -55 -11 -901 14 -909 27 -4 7 -8 23 -8 37 -1 49 -40 183 -79 264
-123 265 -334 446 -618 533 -81 24 -102 27 -263 27 -163 0 -181 -2 -265 -27
-382 -118 -635 -410 -700 -809 l-6 -38 -243 0 -244 0 -37 78 c-20 42 -50 99
-66 125 l-29 48 29 24 c50 43 61 80 61 207 0 133 -10 177 -51 217 -40 40 -84
47 -185 29 l-84 -15 2 1462 c3 1426 3 1463 22 1484 l19 21 1171 -2 1171 -3 48
-24z m-6141 -2517 l3 -846 33 -29 c31 -28 36 -29 132 -29 90 0 101 2 127 24
l28 24 3 851 2 851 135 0 135 0 0 -838 c0 -562 -4 -858 -11 -897 -22 -122 -93
-211 -190 -239 -37 -11 -95 -16 -196 -16 l-143 0 0 28 c0 56 -41 188 -86 280
-49 101 -108 180 -191 256 l-53 49 0 688 0 689 135 0 135 0 2 -846z m1003 649
c32 -109 96 -322 141 -473 l83 -275 0 473 1 472 135 0 135 0 0 -995 0 -995
-135 0 -135 0 0 201 0 200 -121 382 c-66 210 -129 407 -139 437 -18 54 -18 47
-19 -582 l-1 -638 -135 0 -135 0 0 995 0 995 133 0 133 0 59 -197z m965 -191
c62 -213 125 -427 140 -476 l25 -90 3 477 2 477 135 0 135 0 0 -701 0 -701
-22 16 c-45 32 -75 39 -203 45 l-129 6 -101 320 -100 320 -3 -323 -2 -322
-104 0 c-58 0 -116 -4 -130 -10 l-26 -10 0 680 0 680 133 0 132 0 115 -388z
m1173 368 c57 -20 121 -82 148 -142 24 -53 24 -54 24 -423 0 -335 -2 -375 -19
-423 -19 -57 -63 -115 -107 -141 l-26 -16 73 -325 c41 -179 82 -364 93 -412
l19 -88 -127 0 -126 0 -79 368 c-44 202 -83 382 -88 400 l-9 32 -79 0 -80 0 0
-380 0 -380 -135 0 -135 0 0 976 0 975 308 -4 c227 -2 317 -7 345 -17z m-3837
-1311 c192 -34 346 -120 459 -256 186 -224 227 -530 106 -788 -113 -239 -313
-384 -589 -426 -199 -30 -448 57 -602 211 -341 341 -273 913 140 1160 147 89
333 127 486 99z m4622 -17 c10 -14 19 -174 13 -247 -3 -34 -47 -65 -92 -65
-21 0 -39 -2 -39 -5 0 -2 14 -28 31 -57 107 -181 217 -437 235 -544 l6 -41 88
-7 c171 -13 285 -60 371 -154 86 -94 53 -112 -116 -61 -95 28 -118 31 -199 27
-104 -5 -158 -25 -242 -88 -63 -48 -135 -153 -171 -251 l-27 -72 -201 6 c-110
4 -361 7 -557 7 l-358 0 0 39 c0 97 -75 254 -157 328 -188 170 -474 177 -653
16 -88 -79 -143 -192 -156 -317 l-7 -66 -55 0 -55 0 6 113 c4 66 15 142 27
187 43 152 142 298 260 385 40 30 50 42 50 66 0 42 24 95 52 113 21 14 67 15
423 6 262 -7 403 -14 412 -21 17 -15 17 -78 -1 -120 -22 -54 -29 -133 -16
-193 15 -72 57 -129 121 -161 l51 -26 271 3 c259 3 274 4 313 25 95 51 144
149 144 289 0 131 -40 331 -91 461 l-21 52 21 27 c29 36 41 88 31 125 -16 54
-50 97 -91 115 -21 10 -38 23 -36 28 8 25 76 49 214 76 153 29 179 29 201 2z
m1751 3 c220 -46 410 -192 506 -389 81 -164 101 -311 67 -477 -48 -233 -191
-420 -397 -519 -119 -57 -191 -74 -325 -74 -211 0 -372 66 -522 216 -74 74
-94 101 -137 190 -79 161 -99 310 -65 476 51 250 228 457 469 547 120 46 276
57 404 30z m-3357 -98 c22 -11 25 -24 34 -124 l7 -83 -175 0 c-96 0 -270 3
-386 7 l-212 6 6 81 c7 89 22 123 56 128 47 6 654 -7 670 -15z m1223 -92 c36
-35 35 -96 -1 -124 -36 -28 -91 -27 -121 1 -30 28 -31 85 -2 122 28 36 89 37
124 1z m-1321 -192 l138 -6 -4 -83 c-5 -134 22 -125 -379 -122 -406 4 -379 -6
-379 130 l0 88 243 0 c134 0 306 -3 381 -7z m143 -792 c112 -60 188 -152 217
-266 63 -241 -91 -475 -338 -515 -203 -32 -394 90 -457 291 -65 209 51 435
263 511 42 15 74 18 153 15 91 -3 107 -7 162 -36z m2029 -83 c247 -91 332
-399 168 -613 -100 -132 -312 -183 -466 -113 -169 78 -268 276 -224 448 61
234 298 361 522 278z"/>
<path d="M3330 5640 l0 -732 213 4 c203 3 214 4 262 28 60 30 100 89 115 169
14 76 13 1004 -1 1073 -15 72 -45 123 -92 155 l-40 28 -229 3 -228 3 0 -731z"/>
<path d="M6740 6619 c-60 -24 -60 -21 -60 -411 l0 -358 150 0 150 0 0 356 c0
235 -4 362 -11 376 -6 11 -26 26 -44 34 -39 16 -147 18 -185 3z"/>
<path d="M7650 5881 l0 -751 129 0 c112 0 132 3 152 19 l24 19 3 654 c2 359 0
672 -3 696 -4 27 -17 55 -35 75 l-28 32 -121 4 -121 3 0 -751z"/>
<path d="M5617 6559 c-144 -22 -265 -143 -298 -300 -23 -108 15 -244 94 -335
113 -129 327 -152 469 -48 103 74 166 208 155 332 -9 107 -40 177 -111 248
-87 87 -190 121 -309 103z m152 -236 c43 -32 73 -101 67 -153 -27 -206 -317
-195 -320 13 -2 138 144 219 253 140z"/>
<path d="M9093 6058 l-33 -23 0 -578 c0 -592 2 -629 39 -651 6 -4 469 -7 1028
-6 885 0 1020 2 1040 15 27 18 29 50 9 100 -13 30 -98 292 -161 495 -95 305
-178 549 -200 585 -13 24 -40 53 -59 64 -33 21 -40 21 -832 21 l-799 0 -32
-22z"/>
<path d="M7640 4200 l0 -360 111 0 111 0 34 34 34 34 0 281 c0 315 -3 331 -65
357 -22 9 -70 14 -130 14 l-95 0 0 -360z"/>
<path d="M3999 3087 c-104 -30 -200 -113 -246 -214 -21 -45 -26 -72 -26 -137
-1 -71 3 -90 30 -146 38 -80 98 -142 177 -183 55 -28 70 -31 151 -31 81 -1 97
3 156 32 247 119 281 449 63 614 -85 65 -210 92 -305 65z"/>
<path d="M10308 3077 c-146 -55 -234 -165 -253 -317 -17 -139 67 -283 208
-358 47 -24 62 -27 152 -27 87 0 106 3 149 25 78 39 141 103 178 178 30 60 33
75 33 152 -1 72 -5 95 -29 148 -33 72 -108 146 -183 183 -59 29 -197 37 -255
16z"/>
<path d="M6975 2092 c-138 -66 -154 -249 -32 -346 36 -29 45 -31 117 -31 72 0
81 2 117 31 64 52 83 88 83 158 0 72 -25 123 -83 170 -49 39 -140 47 -202 18z"/>
<path d="M9040 1999 c-89 -53 -123 -154 -81 -244 46 -99 158 -141 256 -96 125
57 150 219 48 312 -43 40 -66 49 -130 49 -41 0 -68 -6 -93 -21z"/>
</g>
</svg>
